<svg xmlns="http://www.w3.org/2000/svg" width="210" height="260" viewBox="0 0 210 260"><rect width="210" height="260" fill="#1C1B3A"/><g transform="translate(54,4) scale(1.0)"><g>
<path d="M70 22 C66 8 58 2 48 4 C52 9 53 13 51 17 C44 11 36 9 29 12 C35 15 39 19 40 24 C32 21 24 22 19 27 C26 28 31 31 34 36 C27 36 21 39 18 45 C25 44 31 46 35 50 L52 44 Z" fill="#BEF264" stroke="#F6F4EE" stroke-width="3" stroke-linejoin="round"/>
<line x1="35" y1="44" x2="62" y2="26" stroke="#1C1B3A" stroke-width="2.4" stroke-linecap="round"/>
<path d="M66 30 Q72 40 70 50" fill="none" stroke="#F6F4EE" stroke-width="4" stroke-linecap="round"/>
<circle cx="66" cy="83" r="36" fill="#BEF264" stroke="#F6F4EE" stroke-width="4"/>
<circle cx="52" cy="70" r="2.6" fill="#1C1B3A"/><circle cx="66" cy="66" r="2.6" fill="#1C1B3A"/><circle cx="80" cy="71" r="2.6" fill="#1C1B3A"/><circle cx="45" cy="84" r="2.6" fill="#1C1B3A"/><circle cx="59" cy="80" r="2.6" fill="#1C1B3A"/><circle cx="73" cy="82" r="2.6" fill="#1C1B3A"/><circle cx="87" cy="85" r="2.6" fill="#1C1B3A"/><circle cx="51" cy="97" r="2.6" fill="#1C1B3A"/><circle cx="65" cy="94" r="2.6" fill="#1C1B3A"/><circle cx="79" cy="97" r="2.6" fill="#1C1B3A"/><circle cx="59" cy="109" r="2.6" fill="#1C1B3A"/><circle cx="73" cy="108" r="2.6" fill="#1C1B3A"/>
</g></g><path transform="translate(25.44,228.00) scale(0.106000,-0.106000)" d="M36 0V700H198V0Z" fill="#F6F4EE" /><path transform="translate(45.44,228.00) scale(0.106000,-0.106000)" d="M175 -14Q135 -14 99.0 0.0Q63 14 40.0 45.5Q17 77 17 130Q17 179 36.0 209.5Q55 240 87.0 258.5Q119 277 157.0 286.5Q195 296 232 303Q284 313 310.0 319.0Q336 325 345.5 333.0Q355 341 355 355Q355 384 333.5 399.0Q312 414 277 414Q255 414 233.0 406.0Q211 398 197.0 377.5Q183 357 184 319L40 329Q38 392 59.0 433.5Q80 475 116.5 498.5Q153 522 196.5 532.0Q240 542 283 542Q362 542 413.0 512.5Q464 483 488.5 427.5Q513 372 513 293V199Q513 166 513.0 132.5Q513 99 513.0 66.0Q513 33 513 0H373Q373 36 373.0 73.0Q373 110 373 151H367Q363 106 337.5 68.5Q312 31 270.5 8.5Q229 -14 175 -14ZM242 104Q259 104 278.5 110.5Q298 117 315.5 132.0Q333 147 344.0 173.5Q355 200 355 239V263L382 266Q374 253 355.5 245.0Q337 237 314.0 232.5Q291 228 267.5 223.5Q244 219 224.0 211.5Q204 204 191.5 191.5Q179 179 179 157Q179 131 197.5 117.5Q216 104 242 104Z" fill="#F6F4EE" /><path transform="translate(98.20,228.00) scale(0.106000,-0.106000)" d="M36 0V293V528H173V313H181Q188 397 208.5 447.0Q229 497 263.5 519.5Q298 542 346 542Q396 542 427.0 517.5Q458 493 473.0 442.5Q488 392 487 313H495Q502 396 524.0 446.0Q546 496 582.0 519.0Q618 542 667 542Q708 542 738.0 527.0Q768 512 788.5 482.0Q809 452 819.0 406.5Q829 361 829 300V0H667V286Q667 324 660.5 349.5Q654 375 641.0 387.5Q628 400 608 400Q582 400 560.0 376.5Q538 353 524.5 306.0Q511 259 511 187V0H353V290Q353 328 346.5 352.0Q340 376 326.5 388.0Q313 400 293 400Q268 400 246.5 379.5Q225 359 211.5 312.0Q198 265 198 187V0Z" fill="#F6F4EE" /><path transform="translate(30.30,250.00) scale(0.010000,-0.010000)" d="M115 0V730H205V82H535V0Z" fill="#6E6D8E" /><path transform="translate(38.60,250.00) scale(0.010000,-0.010000)" d="M100 0V730H520V648H189V422H485V341H189V82H520V0Z" fill="#6E6D8E" /><path transform="translate(55.20,250.00) scale(0.010000,-0.010000)" d="M95 0V731H525V649H183V406H499V324H185V0Z" fill="#6E6D8E" /><path transform="translate(63.50,250.00) scale(0.010000,-0.010000)" d="M92 0V730H318Q383 730 432.0 703.5Q481 677 508.0 630.0Q535 583 535 520Q535 446 496.5 393.0Q458 340 392 320L545 0H439L299 310H182V0ZM182 391H318Q374 391 408.0 426.5Q442 462 442 520Q442 579 408.0 614.0Q374 649 318 649H182Z" fill="#6E6D8E" /><path transform="translate(71.80,250.00) scale(0.010000,-0.010000)" d="M300 -10Q198 -10 144.0 46.5Q90 103 90 200V730H180V200Q180 140 209.5 105.0Q239 70 300 70Q360 70 390.0 105.0Q420 140 420 200V730H510V200Q510 102 456.5 46.0Q403 -10 300 -10Z" fill="#6E6D8E" /><path transform="translate(80.10,250.00) scale(0.010000,-0.010000)" d="M105 0V82H254V648H105V730H495V648H346V82H495V0Z" fill="#6E6D8E" /><path transform="translate(88.40,250.00) scale(0.010000,-0.010000)" d="M255 0V649H55V731H545V649H345V0Z" fill="#6E6D8E" /><path transform="translate(105.00,250.00) scale(0.010000,-0.010000)" d="M92 0V730H281Q352 730 403.5 703.0Q455 676 483.5 627.0Q512 578 512 511V220Q512 153 483.5 103.5Q455 54 403.5 27.0Q352 0 281 0ZM182 80H281Q347 80 384.5 117.0Q422 154 422 220V511Q422 576 384.5 613.0Q347 650 281 650H182Z" fill="#6E6D8E" /><path transform="translate(113.30,250.00) scale(0.010000,-0.010000)" d="M300 -10Q198 -10 144.0 46.5Q90 103 90 200V730H180V200Q180 140 209.5 105.0Q239 70 300 70Q360 70 390.0 105.0Q420 140 420 200V730H510V200Q510 102 456.5 46.0Q403 -10 300 -10Z" fill="#6E6D8E" /><path transform="translate(129.90,250.00) scale(0.010000,-0.010000)" d="M304 -10Q232 -10 180.5 14.0Q129 38 101.0 83.0Q73 128 72 190H162Q162 135 199.5 103.0Q237 71 304 71Q367 71 402.5 102.0Q438 133 438 188Q438 232 414.5 265.0Q391 298 347 311L248 342Q173 365 132.5 419.0Q92 473 92 546Q92 605 118.5 648.5Q145 692 193.0 716.5Q241 741 306 741Q402 741 460.0 687.5Q518 634 519 545H429Q429 599 396.5 629.5Q364 660 305 660Q247 660 214.5 632.0Q182 604 182 554Q182 509 206.0 476.0Q230 443 275 429L375 397Q448 374 488.0 319.0Q528 264 528 190Q528 130 500.0 85.0Q472 40 421.5 15.0Q371 -10 304 -10Z" fill="#6E6D8E" /><path transform="translate(138.20,250.00) scale(0.010000,-0.010000)" d="M50 0 240 730H361L550 0H459L411 194H190L142 0ZM208 270H392L336 495Q320 559 311.0 602.0Q302 645 300 658Q298 645 289.0 602.0Q280 559 264 496Z" fill="#6E6D8E" /><path transform="translate(146.50,250.00) scale(0.010000,-0.010000)" d="M238 0 50 730H143L267 234Q280 182 289.0 137.5Q298 93 302 70Q306 93 314.5 137.5Q323 182 336 234L459 730H550L361 0Z" fill="#6E6D8E" /><path transform="translate(154.80,250.00) scale(0.010000,-0.010000)" d="M300 -10Q234 -10 186.5 15.0Q139 40 113.5 87.5Q88 135 88 200V530Q88 596 113.5 643.0Q139 690 186.5 715.0Q234 740 300 740Q366 740 413.5 715.0Q461 690 486.5 643.0Q512 596 512 531V200Q512 135 486.5 87.5Q461 40 413.5 15.0Q366 -10 300 -10ZM300 71Q359 71 390.5 104.5Q422 138 422 200V530Q422 592 390.5 625.5Q359 659 300 659Q242 659 210.0 625.5Q178 592 178 530V200Q178 138 210.0 104.5Q242 71 300 71Z" fill="#6E6D8E" /><path transform="translate(163.10,250.00) scale(0.010000,-0.010000)" d="M105 0V82H254V648H105V730H495V648H346V82H495V0Z" fill="#6E6D8E" /><path transform="translate(171.40,250.00) scale(0.010000,-0.010000)" d="M92 0V730H318Q383 730 432.0 703.5Q481 677 508.0 630.0Q535 583 535 520Q535 446 496.5 393.0Q458 340 392 320L545 0H439L299 310H182V0ZM182 391H318Q374 391 408.0 426.5Q442 462 442 520Q442 579 408.0 614.0Q374 649 318 649H182Z" fill="#6E6D8E" /></svg>