<svg xmlns="http://www.w3.org/2000/svg" width="315" height="140" viewBox="0 0 315 140"><rect width="315" height="140" fill="#1C1B3A"/><g transform="translate(6,8) scale(1.0)"><g>
<path d="M70 22 C66 8 58 2 48 4 C52 9 53 13 51 17 C44 11 36 9 29 12 C35 15 39 19 40 24 C32 21 24 22 19 27 C26 28 31 31 34 36 C27 36 21 39 18 45 C25 44 31 46 35 50 L52 44 Z" fill="#BEF264" stroke="#F6F4EE" stroke-width="3" stroke-linejoin="round"/>
<line x1="35" y1="44" x2="62" y2="26" stroke="#1C1B3A" stroke-width="2.4" stroke-linecap="round"/>
<path d="M66 30 Q72 40 70 50" fill="none" stroke="#F6F4EE" stroke-width="4" stroke-linecap="round"/>
<circle cx="66" cy="83" r="36" fill="#BEF264" stroke="#F6F4EE" stroke-width="4"/>
<circle cx="52" cy="70" r="2.6" fill="#1C1B3A"/><circle cx="66" cy="66" r="2.6" fill="#1C1B3A"/><circle cx="80" cy="71" r="2.6" fill="#1C1B3A"/><circle cx="45" cy="84" r="2.6" fill="#1C1B3A"/><circle cx="59" cy="80" r="2.6" fill="#1C1B3A"/><circle cx="73" cy="82" r="2.6" fill="#1C1B3A"/><circle cx="87" cy="85" r="2.6" fill="#1C1B3A"/><circle cx="51" cy="97" r="2.6" fill="#1C1B3A"/><circle cx="65" cy="94" r="2.6" fill="#1C1B3A"/><circle cx="79" cy="97" r="2.6" fill="#1C1B3A"/><circle cx="59" cy="109" r="2.6" fill="#1C1B3A"/><circle cx="73" cy="108" r="2.6" fill="#1C1B3A"/>
</g></g><path transform="translate(122.00,116.00) scale(0.122000,-0.122000)" d="M36 0V700H198V0Z" fill="#F6F4EE" /><path transform="translate(145.05,116.00) scale(0.122000,-0.122000)" d="M175 -14Q135 -14 99.0 0.0Q63 14 40.0 45.5Q17 77 17 130Q17 179 36.0 209.5Q55 240 87.0 258.5Q119 277 157.0 286.5Q195 296 232 303Q284 313 310.0 319.0Q336 325 345.5 333.0Q355 341 355 355Q355 384 333.5 399.0Q312 414 277 414Q255 414 233.0 406.0Q211 398 197.0 377.5Q183 357 184 319L40 329Q38 392 59.0 433.5Q80 475 116.5 498.5Q153 522 196.5 532.0Q240 542 283 542Q362 542 413.0 512.5Q464 483 488.5 427.5Q513 372 513 293V199Q513 166 513.0 132.5Q513 99 513.0 66.0Q513 33 513 0H373Q373 36 373.0 73.0Q373 110 373 151H367Q363 106 337.5 68.5Q312 31 270.5 8.5Q229 -14 175 -14ZM242 104Q259 104 278.5 110.5Q298 117 315.5 132.0Q333 147 344.0 173.5Q355 200 355 239V263L382 266Q374 253 355.5 245.0Q337 237 314.0 232.5Q291 228 267.5 223.5Q244 219 224.0 211.5Q204 204 191.5 191.5Q179 179 179 157Q179 131 197.5 117.5Q216 104 242 104Z" fill="#F6F4EE" /><path transform="translate(205.79,116.00) scale(0.122000,-0.122000)" d="M36 0V293V528H173V313H181Q188 397 208.5 447.0Q229 497 263.5 519.5Q298 542 346 542Q396 542 427.0 517.5Q458 493 473.0 442.5Q488 392 487 313H495Q502 396 524.0 446.0Q546 496 582.0 519.0Q618 542 667 542Q708 542 738.0 527.0Q768 512 788.5 482.0Q809 452 819.0 406.5Q829 361 829 300V0H667V286Q667 324 660.5 349.5Q654 375 641.0 387.5Q628 400 608 400Q582 400 560.0 376.5Q538 353 524.5 306.0Q511 259 511 187V0H353V290Q353 328 346.5 352.0Q340 376 326.5 388.0Q313 400 293 400Q268 400 246.5 379.5Q225 359 211.5 312.0Q198 265 198 187V0Z" fill="#F6F4EE" /></svg>