<svg xmlns="http://www.w3.org/2000/svg" width="315" height="150" viewBox="0 0 315 150"><g transform="translate(6,8) scale(1.0)"><g>
<path d="M70 22 C66 8 58 2 48 4 C52 9 53 13 51 17 C44 11 36 9 29 12 C35 15 39 19 40 24 C32 21 24 22 19 27 C26 28 31 31 34 36 C27 36 21 39 18 45 C25 44 31 46 35 50 L52 44 Z" fill="#BEF264" stroke="#1C1B3A" stroke-width="3" stroke-linejoin="round"/>
<line x1="35" y1="44" x2="62" y2="26" stroke="#1C1B3A" stroke-width="2.4" stroke-linecap="round"/>
<path d="M66 30 Q72 40 70 50" fill="none" stroke="#1C1B3A" stroke-width="4" stroke-linecap="round"/>
<circle cx="66" cy="83" r="36" fill="#BEF264" stroke="#1C1B3A" stroke-width="4"/>
<circle cx="52" cy="70" r="2.6" fill="#1C1B3A"/><circle cx="66" cy="66" r="2.6" fill="#1C1B3A"/><circle cx="80" cy="71" r="2.6" fill="#1C1B3A"/><circle cx="45" cy="84" r="2.6" fill="#1C1B3A"/><circle cx="59" cy="80" r="2.6" fill="#1C1B3A"/><circle cx="73" cy="82" r="2.6" fill="#1C1B3A"/><circle cx="87" cy="85" r="2.6" fill="#1C1B3A"/><circle cx="51" cy="97" r="2.6" fill="#1C1B3A"/><circle cx="65" cy="94" r="2.6" fill="#1C1B3A"/><circle cx="79" cy="97" r="2.6" fill="#1C1B3A"/><circle cx="59" cy="109" r="2.6" fill="#1C1B3A"/><circle cx="73" cy="108" r="2.6" fill="#1C1B3A"/>
</g></g><path transform="translate(122.00,116.00) scale(0.122000,-0.122000)" d="M36 0V700H198V0Z" fill="#1C1B3A" /><path transform="translate(145.05,116.00) scale(0.122000,-0.122000)" d="M175 -14Q135 -14 99.0 0.0Q63 14 40.0 45.5Q17 77 17 130Q17 179 36.0 209.5Q55 240 87.0 258.5Q119 277 157.0 286.5Q195 296 232 303Q284 313 310.0 319.0Q336 325 345.5 333.0Q355 341 355 355Q355 384 333.5 399.0Q312 414 277 414Q255 414 233.0 406.0Q211 398 197.0 377.5Q183 357 184 319L40 329Q38 392 59.0 433.5Q80 475 116.5 498.5Q153 522 196.5 532.0Q240 542 283 542Q362 542 413.0 512.5Q464 483 488.5 427.5Q513 372 513 293V199Q513 166 513.0 132.5Q513 99 513.0 66.0Q513 33 513 0H373Q373 36 373.0 73.0Q373 110 373 151H367Q363 106 337.5 68.5Q312 31 270.5 8.5Q229 -14 175 -14ZM242 104Q259 104 278.5 110.5Q298 117 315.5 132.0Q333 147 344.0 173.5Q355 200 355 239V263L382 266Q374 253 355.5 245.0Q337 237 314.0 232.5Q291 228 267.5 223.5Q244 219 224.0 211.5Q204 204 191.5 191.5Q179 179 179 157Q179 131 197.5 117.5Q216 104 242 104Z" fill="#1C1B3A" /><path transform="translate(205.79,116.00) scale(0.122000,-0.122000)" d="M36 0V293V528H173V313H181Q188 397 208.5 447.0Q229 497 263.5 519.5Q298 542 346 542Q396 542 427.0 517.5Q458 493 473.0 442.5Q488 392 487 313H495Q502 396 524.0 446.0Q546 496 582.0 519.0Q618 542 667 542Q708 542 738.0 527.0Q768 512 788.5 482.0Q809 452 819.0 406.5Q829 361 829 300V0H667V286Q667 324 660.5 349.5Q654 375 641.0 387.5Q628 400 608 400Q582 400 560.0 376.5Q538 353 524.5 306.0Q511 259 511 187V0H353V290Q353 328 346.5 352.0Q340 376 326.5 388.0Q313 400 293 400Q268 400 246.5 379.5Q225 359 211.5 312.0Q198 265 198 187V0Z" fill="#1C1B3A" /><path transform="translate(124.00,138.00) scale(0.013000,-0.013000)" d="M238 0 50 730H143L267 234Q280 182 289.0 137.5Q298 93 302 70Q306 93 314.5 137.5Q323 182 336 234L459 730H550L361 0Z" fill="#F2A93B" /><path transform="translate(135.80,138.00) scale(0.013000,-0.013000)" d="M100 0V730H520V648H189V422H485V341H189V82H520V0Z" fill="#F2A93B" /><path transform="translate(147.60,138.00) scale(0.013000,-0.013000)" d="M92 0V730H318Q383 730 432.0 703.5Q481 677 508.0 630.0Q535 583 535 520Q535 446 496.5 393.0Q458 340 392 320L545 0H439L299 310H182V0ZM182 391H318Q374 391 408.0 426.5Q442 462 442 520Q442 579 408.0 614.0Q374 649 318 649H182Z" fill="#F2A93B" /><path transform="translate(159.40,138.00) scale(0.013000,-0.013000)" d="M105 0V82H254V648H105V730H495V648H346V82H495V0Z" fill="#F2A93B" /><path transform="translate(171.20,138.00) scale(0.013000,-0.013000)" d="M255 0V649H55V731H545V649H345V0Z" fill="#F2A93B" /><path transform="translate(183.00,138.00) scale(0.013000,-0.013000)" d="M50 0 240 730H361L550 0H459L411 194H190L142 0ZM208 270H392L336 495Q320 559 311.0 602.0Q302 645 300 658Q298 645 289.0 602.0Q280 559 264 496Z" fill="#F2A93B" /><path transform="translate(194.80,138.00) scale(0.013000,-0.013000)" d="M93 0V730H300Q400 730 456.5 680.0Q513 630 513 541Q513 491 492.0 454.0Q471 417 432.5 397.0Q394 377 340 378V393Q398 394 440.5 371.0Q483 348 506.5 305.0Q530 262 530 203Q530 141 504.0 95.0Q478 49 430.0 24.5Q382 0 315 0ZM181 81H305Q368 81 404.5 114.5Q441 148 441 206Q441 266 404.5 303.5Q368 341 305 341H181ZM181 419H299Q357 419 390.5 450.0Q424 481 424 534Q424 587 391.0 618.0Q358 649 300 649H181Z" fill="#F2A93B" /></svg>