<svg xmlns="http://www.w3.org/2000/svg" viewBox="0 0 140 140" width="140" height="140">
  <rect width="140" height="140" rx="30" fill="#1C1B3A"/>
  <g transform="translate(10,9)">
<path d="M70 22 C66 8 58 2 48 4 C52 9 53 13 51 17 C44 11 36 9 29 12 C35 15 39 19 40 24 C32 21 24 22 19 27 C26 28 31 31 34 36 C27 36 21 39 18 45 C25 44 31 46 35 50 L52 44 Z" fill="#BEF264" stroke="#F6F4EE" stroke-width="3" stroke-linejoin="round"/>
<line x1="35" y1="44" x2="62" y2="26" stroke="#1C1B3A" stroke-width="2.4" stroke-linecap="round"/>
<path d="M66 30 Q72 40 70 50" fill="none" stroke="#F6F4EE" stroke-width="4" stroke-linecap="round"/>
<circle cx="66" cy="83" r="36" fill="#BEF264" stroke="#F6F4EE" stroke-width="4"/>
<circle cx="52" cy="70" r="2.6" fill="#1C1B3A"/><circle cx="66" cy="66" r="2.6" fill="#1C1B3A"/><circle cx="80" cy="71" r="2.6" fill="#1C1B3A"/><circle cx="45" cy="84" r="2.6" fill="#1C1B3A"/><circle cx="59" cy="80" r="2.6" fill="#1C1B3A"/><circle cx="73" cy="82" r="2.6" fill="#1C1B3A"/><circle cx="87" cy="85" r="2.6" fill="#1C1B3A"/><circle cx="51" cy="97" r="2.6" fill="#1C1B3A"/><circle cx="65" cy="94" r="2.6" fill="#1C1B3A"/><circle cx="79" cy="97" r="2.6" fill="#1C1B3A"/><circle cx="59" cy="109" r="2.6" fill="#1C1B3A"/><circle cx="73" cy="108" r="2.6" fill="#1C1B3A"/>
  </g>
</svg>
